<svg width="42" height="42" viewBox="0 0 42 42" fill="none" xmlns="http://www.w3.org/2000/svg">
<rect width="42" height="42" rx="5" fill="white"/>
<g clip-path="url(#clip0_177_8046)">
<path d="M29.9208 14.16C30.3888 12.8654 29.1343 11.6109 27.8397 12.08L12.0176 17.8021C10.7187 18.2723 10.5616 20.0446 11.7565 20.7369L16.807 23.6608L21.3169 19.1509C21.5213 18.9536 21.7949 18.8444 22.079 18.8468C22.363 18.8493 22.6347 18.9632 22.8356 19.1641C23.0364 19.3649 23.1504 19.6367 23.1528 19.9207C23.1553 20.2048 23.0461 20.4784 22.8488 20.6827L18.3388 25.1926L21.2639 30.2431C21.955 31.4381 23.7274 31.2799 24.1975 29.9821L29.9208 14.16Z" fill="#132A44"/>
</g>
<defs>
<clipPath id="clip0_177_8046">
<rect width="26" height="26" fill="white" transform="translate(8 8)"/>
</clipPath>
</defs>
</svg>
