<svg width="59" height="59" viewBox="0 0 59 59" fill="none" xmlns="http://www.w3.org/2000/svg">
<path d="M11.2665 42.5808C8.73446 39.8914 7.375 36.875 7.375 31.9854C7.375 23.3812 13.4151 15.6694 22.1988 11.8566L24.394 15.2442C16.1955 19.679 14.5927 25.4339 13.9535 29.0624C15.2736 28.379 17.0018 28.1406 18.6956 28.2979C23.1305 28.7084 26.6262 32.3492 26.6262 36.875C26.6262 39.157 25.7197 41.3455 24.1061 42.9591C22.4925 44.5727 20.304 45.4792 18.022 45.4792C16.7601 45.4683 15.5128 45.2064 14.353 44.7088C13.1933 44.2112 12.144 43.4879 11.2665 42.5808ZM35.8499 42.5808C33.3178 39.8914 31.9583 36.875 31.9583 31.9854C31.9583 23.3812 37.9985 15.6694 46.7821 11.8566L48.9774 15.2442C40.7788 19.679 39.176 25.4339 38.5368 29.0624C39.857 28.379 41.5852 28.1406 43.279 28.2979C47.7138 28.7084 51.2095 32.3492 51.2095 36.875C51.2095 39.157 50.303 41.3455 48.6894 42.9591C47.0758 44.5727 44.8873 45.4792 42.6054 45.4792C41.3434 45.4683 40.0962 45.2064 38.9364 44.7088C37.7766 44.2112 36.7274 43.4879 35.8499 42.5808Z" fill="#263587"/>
</svg>
