<svg width="24" height="24" viewBox="0 0 24 24" fill="none" xmlns="http://www.w3.org/2000/svg">
<path d="M16.004 12.002C16.004 11.0766 15.6831 10.1799 15.096 9.46453C14.5089 8.7492 13.692 8.25956 12.7844 8.07901C11.8768 7.89847 10.9347 8.0382 10.1185 8.4744C9.3024 8.91059 8.66275 9.61627 8.30857 10.4712C7.95439 11.3261 7.90759 12.2774 8.17614 13.163C8.4447 14.0485 9.01199 14.8136 9.78137 15.3278C10.5508 15.842 11.4746 16.0735 12.3956 15.9829C13.3165 15.8923 14.1776 15.4853 14.832 14.831C15.2034 14.4719 15.4987 14.0416 15.7001 13.5659C15.9014 13.0901 16.0048 12.5786 16.004 12.062L16.003 11.999L16.004 12.002ZM18.164 12.002C18.1592 13.4205 17.663 14.7934 16.7599 15.8872C15.8568 16.9811 14.6026 17.7282 13.2107 18.0014C11.8188 18.2746 10.3752 18.057 9.12564 17.3857C7.87607 16.7144 6.89773 15.6309 6.35711 14.3195C5.81648 13.0081 5.74698 11.5499 6.16044 10.193C6.57389 8.83613 7.44475 7.66445 8.62481 6.87737C9.80487 6.09028 11.2212 5.73642 12.6328 5.87602C14.0444 6.01561 15.364 6.64002 16.367 7.643C16.9366 8.19572 17.3893 8.8573 17.6982 9.58842C18.007 10.3195 18.1658 11.1053 18.165 11.899L18.164 12.008V12.002ZM19.851 5.596V5.598C19.8511 5.93116 19.7357 6.25405 19.5244 6.51165C19.3131 6.76925 19.0191 6.94562 18.6924 7.01071C18.3656 7.07581 18.0264 7.02559 17.7326 6.86863C17.4387 6.71167 17.2083 6.45766 17.0808 6.1499C16.9532 5.84214 16.9363 5.49966 17.0329 5.18082C17.1295 4.86199 17.3337 4.58652 17.6107 4.40135C17.8876 4.21619 18.2202 4.13279 18.5518 4.16537C18.8834 4.19794 19.1934 4.34448 19.429 4.58C19.685 4.831 19.844 5.181 19.844 5.568V5.597L19.851 5.596ZM12.011 2.156L10.816 2.148C10.092 2.14267 9.54233 2.14267 9.167 2.148C8.79167 2.15333 8.289 2.169 7.659 2.195C7.074 2.215 6.519 2.273 5.976 2.365L6.049 2.355C5.624 2.425 5.247 2.525 4.886 2.658L4.929 2.644C4.41901 2.84901 3.95523 3.15408 3.56502 3.5412C3.17481 3.92831 2.86606 4.38965 2.657 4.898L2.647 4.925C2.51864 5.27631 2.42356 5.63891 2.363 6.008L2.358 6.045C2.26906 6.57045 2.21593 7.10134 2.199 7.634L2.198 7.655C2.172 8.28567 2.15633 8.78833 2.151 9.163C2.14567 9.53767 2.14567 10.0873 2.151 10.812C2.15633 11.5367 2.159 11.935 2.159 12.007C2.159 12.079 2.15633 12.4773 2.151 13.202C2.14567 13.9267 2.14567 14.4763 2.151 14.851C2.15633 15.2257 2.172 15.7283 2.198 16.359C2.218 16.944 2.276 17.499 2.368 18.042L2.358 17.969C2.428 18.394 2.528 18.771 2.661 19.132L2.647 19.089C2.85201 19.599 3.15708 20.0628 3.5442 20.453C3.93131 20.8432 4.39265 21.1519 4.901 21.361L4.928 21.371C5.246 21.49 5.623 21.59 6.011 21.655L6.048 21.66C6.517 21.742 7.072 21.8 7.636 21.819L7.657 21.82C8.28767 21.846 8.79033 21.8617 9.165 21.867C9.53967 21.8723 10.0893 21.8723 10.814 21.867L12.002 21.843L13.197 21.851C13.921 21.8563 14.4707 21.8563 14.846 21.851C15.2213 21.8457 15.724 21.83 16.354 21.804C16.939 21.784 17.494 21.726 18.037 21.634L17.964 21.644C18.389 21.574 18.766 21.474 19.127 21.341L19.084 21.355C19.594 21.15 20.0578 20.8449 20.448 20.4578C20.8382 20.0707 21.1469 19.6094 21.356 19.101L21.366 19.074C21.485 18.756 21.585 18.379 21.65 17.991L21.655 17.954C21.737 17.485 21.795 16.93 21.814 16.366L21.815 16.345C21.841 15.7143 21.8567 15.2117 21.862 14.837C21.8673 14.4623 21.8673 13.9127 21.862 13.188C21.8567 12.4633 21.854 12.065 21.854 11.993C21.854 11.921 21.8567 11.5227 21.862 10.798C21.8673 10.0733 21.8673 9.52367 21.862 9.149C21.8567 8.77433 21.841 8.27167 21.815 7.641C21.795 7.056 21.737 6.501 21.645 5.958L21.655 6.031C21.5916 5.6345 21.4901 5.24504 21.352 4.868L21.366 4.911C21.161 4.401 20.8559 3.93723 20.4688 3.54702C20.0817 3.15681 19.6203 2.84806 19.112 2.639L19.085 2.629C18.7337 2.50064 18.3711 2.40556 18.002 2.345L17.965 2.34C17.4399 2.2511 16.9093 2.19798 16.377 2.181L16.356 2.18C15.7253 2.154 15.2227 2.13833 14.848 2.133C14.4733 2.12767 13.9237 2.12767 13.199 2.133L12.011 2.156ZM24.004 12.002C24.004 14.3873 23.9773 16.0383 23.924 16.955C23.9713 17.884 23.8228 18.8125 23.4883 19.6805C23.1537 20.5484 22.6406 21.3364 21.982 21.9933C21.3235 22.6503 20.5343 23.1615 19.6655 23.4939C18.7968 23.8264 17.8679 23.9725 16.939 23.923L16.955 23.924C16.0383 23.9773 14.3873 24.004 12.002 24.004C9.61667 24.004 7.96567 23.9773 7.049 23.924C6.12002 23.9713 5.19147 23.8228 4.32353 23.4883C3.45558 23.1537 2.66761 22.6406 2.01067 21.982C1.35374 21.3235 0.842492 20.5343 0.51007 19.6655C0.177649 18.7968 0.0314679 17.8679 0.081 16.939L0.08 16.955C0.0266667 16.0383 0 14.3873 0 12.002C0 9.61667 0.0266667 7.96567 0.08 7.049C0.0327314 6.12002 0.181176 5.19147 0.515713 4.32353C0.85025 3.45558 1.36342 2.66761 2.02196 2.01067C2.6805 1.35374 3.46972 0.842492 4.33847 0.51007C5.20723 0.177649 6.13614 0.0314679 7.065 0.081L7.049 0.08C7.96567 0.0266667 9.61667 0 12.002 0C14.3873 0 16.0383 0.0266667 16.955 0.08C17.884 0.0327314 18.8125 0.181176 19.6805 0.515713C20.5484 0.85025 21.3364 1.36342 21.9933 2.02196C22.6503 2.6805 23.1615 3.46972 23.4939 4.33847C23.8264 5.20723 23.9725 6.13614 23.923 7.065L23.924 7.049C23.9773 7.965 24.004 9.616 24.004 12.002Z" fill="white"/>
</svg>
