<svg width="49" height="49" viewBox="0 0 49 49" fill="none" xmlns="http://www.w3.org/2000/svg">
<circle cx="24.5" cy="24.5" r="24" stroke="white"/>
<path d="M28.004 25.002C28.004 24.0766 27.6831 23.1799 27.096 22.4645C26.5089 21.7492 25.692 21.2596 24.7844 21.079C23.8768 20.8985 22.9347 21.0382 22.1185 21.4744C21.3024 21.9106 20.6627 22.6163 20.3086 23.4712C19.9544 24.3261 19.9076 25.2774 20.1761 26.163C20.4447 27.0485 21.012 27.8136 21.7814 28.3278C22.5508 28.842 23.4746 29.0735 24.3956 28.9829C25.3165 28.8923 26.1776 28.4853 26.832 27.831C27.2034 27.4719 27.4987 27.0416 27.7001 26.5659C27.9014 26.0901 28.0048 25.5786 28.004 25.062L28.003 24.999L28.004 25.002ZM30.164 25.002C30.1592 26.4205 29.663 27.7934 28.7599 28.8872C27.8568 29.9811 26.6026 30.7282 25.2107 31.0014C23.8188 31.2746 22.3752 31.057 21.1256 30.3857C19.8761 29.7144 18.8977 28.6309 18.3571 27.3195C17.8165 26.0081 17.747 24.5499 18.1604 23.193C18.5739 21.8361 19.4448 20.6645 20.6248 19.8774C21.8049 19.0903 23.2212 18.7364 24.6328 18.876C26.0444 19.0156 27.364 19.64 28.367 20.643C28.9366 21.1957 29.3893 21.8573 29.6982 22.5884C30.007 23.3195 30.1658 24.1053 30.165 24.899L30.164 25.008V25.002ZM31.851 18.596V18.598C31.8511 18.9312 31.7357 19.254 31.5244 19.5116C31.3131 19.7692 31.0191 19.9456 30.6924 20.0107C30.3656 20.0758 30.0264 20.0256 29.7326 19.8686C29.4387 19.7117 29.2083 19.4577 29.0808 19.1499C28.9532 18.8421 28.9363 18.4997 29.0329 18.1808C29.1295 17.862 29.3337 17.5865 29.6107 17.4014C29.8876 17.2162 30.2202 17.1328 30.5518 17.1654C30.8834 17.1979 31.1934 17.3445 31.429 17.58C31.685 17.831 31.844 18.181 31.844 18.568V18.597L31.851 18.596ZM24.011 15.156L22.816 15.148C22.092 15.1427 21.5423 15.1427 21.167 15.148C20.7917 15.1533 20.289 15.169 19.659 15.195C19.074 15.215 18.519 15.273 17.976 15.365L18.049 15.355C17.624 15.425 17.247 15.525 16.886 15.658L16.929 15.644C16.419 15.849 15.9552 16.1541 15.565 16.5412C15.1748 16.9283 14.8661 17.3897 14.657 17.898L14.647 17.925C14.5186 18.2763 14.4236 18.6389 14.363 19.008L14.358 19.045C14.2691 19.5705 14.2159 20.1013 14.199 20.634L14.198 20.655C14.172 21.2857 14.1563 21.7883 14.151 22.163C14.1457 22.5377 14.1457 23.0873 14.151 23.812C14.1563 24.5367 14.159 24.935 14.159 25.007C14.159 25.079 14.1563 25.4773 14.151 26.202C14.1457 26.9267 14.1457 27.4763 14.151 27.851C14.1563 28.2257 14.172 28.7283 14.198 29.359C14.218 29.944 14.276 30.499 14.368 31.042L14.358 30.969C14.428 31.394 14.528 31.771 14.661 32.132L14.647 32.089C14.852 32.599 15.1571 33.0628 15.5442 33.453C15.9313 33.8432 16.3927 34.1519 16.901 34.361L16.928 34.371C17.246 34.49 17.623 34.59 18.011 34.655L18.048 34.66C18.517 34.742 19.072 34.8 19.636 34.819L19.657 34.82C20.2877 34.846 20.7903 34.8617 21.165 34.867C21.5397 34.8723 22.0893 34.8723 22.814 34.867L24.002 34.843L25.197 34.851C25.921 34.8563 26.4707 34.8563 26.846 34.851C27.2213 34.8457 27.724 34.83 28.354 34.804C28.939 34.784 29.494 34.726 30.037 34.634L29.964 34.644C30.389 34.574 30.766 34.474 31.127 34.341L31.084 34.355C31.594 34.15 32.0578 33.8449 32.448 33.4578C32.8382 33.0707 33.1469 32.6094 33.356 32.101L33.366 32.074C33.485 31.756 33.585 31.379 33.65 30.991L33.655 30.954C33.737 30.485 33.795 29.93 33.814 29.366L33.815 29.345C33.841 28.7143 33.8567 28.2117 33.862 27.837C33.8673 27.4623 33.8673 26.9127 33.862 26.188C33.8567 25.4633 33.854 25.065 33.854 24.993C33.854 24.921 33.8567 24.5227 33.862 23.798C33.8673 23.0733 33.8673 22.5237 33.862 22.149C33.8567 21.7743 33.841 21.2717 33.815 20.641C33.795 20.056 33.737 19.501 33.645 18.958L33.655 19.031C33.5916 18.6345 33.4901 18.245 33.352 17.868L33.366 17.911C33.161 17.401 32.8559 16.9372 32.4688 16.547C32.0817 16.1568 31.6203 15.8481 31.112 15.639L31.085 15.629C30.7337 15.5006 30.3711 15.4056 30.002 15.345L29.965 15.34C29.4399 15.2511 28.9093 15.198 28.377 15.181L28.356 15.18C27.7253 15.154 27.2227 15.1383 26.848 15.133C26.4733 15.1277 25.9237 15.1277 25.199 15.133L24.011 15.156ZM36.004 25.002C36.004 27.3873 35.9773 29.0383 35.924 29.955C35.9713 30.884 35.8228 31.8125 35.4883 32.6805C35.1537 33.5484 34.6406 34.3364 33.982 34.9933C33.3235 35.6503 32.5343 36.1615 31.6655 36.4939C30.7968 36.8264 29.8679 36.9725 28.939 36.923L28.955 36.924C28.0383 36.9773 26.3873 37.004 24.002 37.004C21.6167 37.004 19.9657 36.9773 19.049 36.924C18.12 36.9713 17.1915 36.8228 16.3235 36.4883C15.4556 36.1537 14.6676 35.6406 14.0107 34.982C13.3537 34.3235 12.8425 33.5343 12.5101 32.6655C12.1776 31.7968 12.0315 30.8679 12.081 29.939L12.08 29.955C12.0267 29.0383 12 27.3873 12 25.002C12 22.6167 12.0267 20.9657 12.08 20.049C12.0327 19.12 12.1812 18.1915 12.5157 17.3235C12.8503 16.4556 13.3634 15.6676 14.022 15.0107C14.6805 14.3537 15.4697 13.8425 16.3385 13.5101C17.2072 13.1776 18.1361 13.0315 19.065 13.081L19.049 13.08C19.9657 13.0267 21.6167 13 24.002 13C26.3873 13 28.0383 13.0267 28.955 13.08C29.884 13.0327 30.8125 13.1812 31.6805 13.5157C32.5484 13.8503 33.3364 14.3634 33.9933 15.022C34.6503 15.6805 35.1615 16.4697 35.4939 17.3385C35.8264 18.2072 35.9725 19.1361 35.923 20.065L35.924 20.049C35.9773 20.965 36.004 22.616 36.004 25.002Z" fill="white"/>
</svg>
