<svg width="175" height="111" viewBox="0 0 175 111" fill="none" xmlns="http://www.w3.org/2000/svg">
<g clip-path="url(#clip0_83_280)">
<path d="M77.045 51.9322C73.0093 51.9322 70.3589 56.5224 68.8372 60.4074L67.8738 55.621L64.1524 57.0106L63.1559 111.15L67.9441 109.368L68.7339 66.9589C70.9791 57.8285 74.2787 54.2106 76.1022 54.2064C78.9966 54.2064 80.5513 59.2139 80.572 67.1049C80.5968 78.2258 75.1429 84.5728 71.0122 84.9484L71.4877 86.8262C80.9648 85.9416 85.8812 73.7107 85.8646 66.7252C85.8522 60.2488 84.0287 51.9155 77.045 51.9322Z" fill="#815F99"/>
<path d="M170.489 17.4762C170.489 17.4762 171.465 50.1086 163.555 50.1253C158.051 50.1253 161.487 20.8271 161.487 20.8271L156.852 22.5338C156.852 22.5338 156.414 28.8475 156.157 34.4976C153.863 42.5806 149.43 56.5933 146.234 56.6142C140.776 56.6142 140.242 29.7405 140.226 23.1347C140.209 16.529 142.355 2.33268 144.642 2.32851C147.309 2.32851 148.061 10.6994 148.049 14.092C148.049 16.3537 148.252 29.5819 142.591 38.6539L143.798 39.8223C143.798 39.8223 152.697 29.8365 152.651 12.6273C152.626 1.36039 146.912 -0.162734 144.948 -0.158561C136.372 -0.133523 135.38 21.3112 135.4 29.2314C135.4 34.2389 136.174 44.9592 138.708 52.1283C137.22 55.9131 135.045 60.4741 133.192 60.4741C131.055 60.4741 131.952 46.7369 131.952 43.2942C131.952 39.8515 131.865 33.0496 126.242 33.0621C122.433 33.0621 119.279 38.487 117.918 41.2244L117.223 37.2935L113.295 38.7415L113.084 56.1635C110.252 62.6107 104.517 74.1363 99.642 74.1488C94.829 74.1488 93.4645 67.685 93.4397 61.267C93.4397 55.4249 96.4913 45.9982 99.8984 45.9899C104.753 45.9899 102.822 60.4908 98.2444 62.1725C97.6755 62.3661 97.0708 62.4288 96.4747 62.3561L96.3672 63.9377C97.0378 64.0944 97.7219 64.1852 98.4098 64.2089C102.131 64.2089 106.919 59.5561 106.903 52.8126C106.886 46.0692 103.144 43.7449 99.6586 43.7532C92.7988 43.7532 88.6474 53.351 88.6722 63.9126C88.6722 71.57 92.7203 76.7736 98.0791 76.7611C104.31 76.7611 109.727 67.7225 113.035 60.0276L112.907 70.8439L117.691 69.0662L117.877 45.6978C119.295 41.4247 122.632 36.3129 124.906 36.3045C127.933 36.3045 127.209 49.4534 127.217 52.9963C127.226 56.5391 126.758 64.38 131.613 64.3675C134.635 64.3675 137.65 58.9427 139.63 54.4776C140.999 57.3611 142.777 59.2598 145.064 59.2515C150.269 59.2515 153.933 49.3616 155.967 41.8378C156.091 47.029 157.208 52.5664 163.187 52.3703C166.788 52.2535 169.302 48.6481 170.898 45.1762L170.485 86.8512C170.485 86.8512 146.693 80.1746 103.086 89.1756L164.502 66.3204V63.3576L98.4098 87.9153V92.2719C98.4098 92.2719 144.72 82.7284 175.136 92.9563V15.757L170.489 17.4762Z" fill="#815F99"/>
<path d="M33.0789 26.5565C12.8181 26.5565 -0.161255 48.0179 -0.161255 65.081C-0.161255 72.9846 3.42368 80.1662 10.4157 83.3835C13.1034 95.0677 20.2567 104.607 32.6779 104.607C50.1601 104.607 58.926 79.9617 58.926 63.9669C58.9343 54.8031 59.7323 26.5565 33.0789 26.5565ZM33.5999 102.32C27.0172 102.32 19.7812 96.3905 16.4526 85.0151C17.3285 85.1149 18.2092 85.1651 19.0907 85.1654C26.4508 85.1654 32.4339 80.2997 32.4339 80.2997L31.487 78.2925C28.1378 80.9048 21.3401 83.2291 15.5678 81.4306C14.8966 77.9822 14.5669 74.475 14.5837 70.9607C14.5837 53.2716 18.2141 45.5058 18.2141 45.5058L16.1467 44.4083C16.1467 44.4083 9.15874 52.8001 9.15874 72.1208C9.15874 73.7566 9.23316 75.4007 9.38615 77.024C7.15746 74.0028 5.71026 69.4125 5.71026 62.6774C5.71026 41.3412 21.2987 28.8266 32.7895 28.8266C40.1868 28.8266 53.1744 31.3512 53.1744 62.8402C53.1992 95.4808 38.0408 102.32 33.6082 102.32H33.5999Z" fill="#815F99"/>
</g>
<defs>
<clipPath id="clip0_83_280">
<rect width="175" height="111" fill="white"/>
</clipPath>
</defs>
</svg>
