<svg width="112" height="19" viewBox="0 0 112 19" fill="none" xmlns="http://www.w3.org/2000/svg">
<path d="M10.0588 0L13.478 5.82956L20.1176 7.25735L15.5912 12.288L16.2755 19L10.0588 16.2796L3.84213 19L4.52647 12.288L0 7.25735L6.63964 5.82956L10.0588 0Z" fill="#FFCB45"/>
<path d="M32.859 0L36.2782 5.82956L42.9178 7.25735L38.3913 12.288L39.0757 19L32.859 16.2796L26.6423 19L27.3266 12.288L22.8002 7.25735L29.4398 5.82956L32.859 0Z" fill="#FFCB45"/>
<path d="M55.6592 0L59.0783 5.82956L65.718 7.25735L61.1915 12.288L61.8759 19L55.6592 16.2796L49.4425 19L50.1268 12.288L45.6003 7.25735L52.24 5.82956L55.6592 0Z" fill="#FFCB45"/>
<path d="M78.4593 0L81.8785 5.82956L88.5182 7.25735L83.9917 12.288L84.676 19L78.4593 16.2796L72.2426 19L72.927 12.288L68.4005 7.25735L75.0402 5.82956L78.4593 0Z" fill="#FFCB45"/>
<path d="M101.26 0L104.679 5.82956L111.318 7.25735L106.792 12.288L107.476 19L101.26 16.2796L95.0428 19L95.7272 12.288L91.2007 7.25735L97.8403 5.82956L101.26 0Z" fill="#FFCB45"/>
</svg>
