<svg width="112" height="19" viewBox="0 0 112 19" fill="none" xmlns="http://www.w3.org/2000/svg">
<path d="M10.0588 0L13.478 5.82956L20.1176 7.25735L15.5912 12.288L16.2755 19L10.0588 16.2796L3.84213 19L4.52647 12.288L0 7.25735L6.63964 5.82956L10.0588 0Z" fill="#FFCB45"/>
<path d="M32.859 0L36.2782 5.82956L42.9178 7.25735L38.3913 12.288L39.0757 19L32.859 16.2796L26.6423 19L27.3266 12.288L22.8002 7.25735L29.4398 5.82956L32.859 0Z" fill="#FFCB45"/>
<path d="M55.6592 0L59.0783 5.82956L65.718 7.25735L61.1915 12.288L61.8759 19L55.6592 16.2796L49.4425 19L50.1268 12.288L45.6003 7.25735L52.24 5.82956L55.6592 0Z" fill="#FFCB45"/>
<mask id="path-4-inside-1_59_84" fill="white">
<path d="M78.4593 0L81.8785 5.82956L88.5182 7.25735L83.9917 12.288L84.676 19L78.4593 16.2796L72.2426 19L72.927 12.288L68.4005 7.25735L75.0402 5.82956L78.4593 0Z"/>
</mask>
<path d="M78.4593 0L79.3219 -0.505924L78.4593 -1.97658L77.5968 -0.505924L78.4593 0ZM81.8785 5.82956L81.0159 6.33548L81.2384 6.71477L81.6683 6.80721L81.8785 5.82956ZM88.5182 7.25735L89.2615 7.92623L90.4164 6.6427L88.7284 6.2797L88.5182 7.25735ZM83.9917 12.288L83.2483 11.6191L82.9519 11.9486L82.9968 12.3894L83.9917 12.288ZM84.676 19L84.2751 19.9161L85.8446 20.6029L85.6709 18.8986L84.676 19ZM78.4593 16.2796L78.8602 15.3634L78.4593 15.188L78.0584 15.3634L78.4593 16.2796ZM72.2426 19L71.2478 18.8986L71.074 20.6029L72.6435 19.9161L72.2426 19ZM72.927 12.288L73.9218 12.3894L73.9668 11.9486L73.6704 11.6191L72.927 12.288ZM68.4005 7.25735L68.1903 6.2797L66.5022 6.6427L67.6571 7.92623L68.4005 7.25735ZM75.0402 5.82956L75.2504 6.80721L75.6803 6.71477L75.9027 6.33548L75.0402 5.82956ZM77.5968 0.505924L81.0159 6.33548L82.7411 5.32364L79.3219 -0.505924L77.5968 0.505924ZM81.6683 6.80721L88.3079 8.235L88.7284 6.2797L82.0887 4.85191L81.6683 6.80721ZM87.7748 6.58848L83.2483 11.6191L84.7351 12.9569L89.2615 7.92623L87.7748 6.58848ZM82.9968 12.3894L83.6812 19.1014L85.6709 18.8986L84.9865 12.1866L82.9968 12.3894ZM85.0769 18.0839L78.8602 15.3634L78.0584 17.1957L84.2751 19.9161L85.0769 18.0839ZM78.0584 15.3634L71.8417 18.0839L72.6435 19.9161L78.8602 17.1957L78.0584 15.3634ZM73.2375 19.1014L73.9218 12.3894L71.9321 12.1866L71.2478 18.8986L73.2375 19.1014ZM73.6704 11.6191L69.1439 6.58848L67.6571 7.92623L72.1836 12.9569L73.6704 11.6191ZM68.6107 8.235L75.2504 6.80721L74.8299 4.85191L68.1903 6.2797L68.6107 8.235ZM75.9027 6.33548L79.3219 0.505924L77.5968 -0.505924L74.1776 5.32364L75.9027 6.33548Z" fill="#FFCB45" mask="url(#path-4-inside-1_59_84)"/>
<mask id="path-6-inside-2_59_84" fill="white">
<path d="M101.26 0L104.679 5.82956L111.318 7.25735L106.792 12.288L107.476 19L101.26 16.2796L95.0428 19L95.7272 12.288L91.2007 7.25735L97.8403 5.82956L101.26 0Z"/>
</mask>
<path d="M101.26 0L102.122 -0.505924L101.26 -1.97658L100.397 -0.505924L101.26 0ZM104.679 5.82956L103.816 6.33548L104.039 6.71477L104.468 6.80721L104.679 5.82956ZM111.318 7.25735L112.062 7.92623L113.217 6.6427L111.529 6.2797L111.318 7.25735ZM106.792 12.288L106.048 11.6191L105.752 11.9486L105.797 12.3894L106.792 12.288ZM107.476 19L107.075 19.9161L108.645 20.6029L108.471 18.8986L107.476 19ZM101.26 16.2796L101.66 15.3634L101.26 15.188L100.859 15.3634L101.26 16.2796ZM95.0428 19L94.048 18.8986L93.8742 20.6029L95.4437 19.9161L95.0428 19ZM95.7272 12.288L96.722 12.3894L96.7669 11.9486L96.4705 11.6191L95.7272 12.288ZM91.2007 7.25735L90.9904 6.2797L89.3024 6.6427L90.4573 7.92623L91.2007 7.25735ZM97.8403 5.82956L98.0506 6.80721L98.4804 6.71477L98.7029 6.33548L97.8403 5.82956ZM100.397 0.505924L103.816 6.33548L105.541 5.32364L102.122 -0.505924L100.397 0.505924ZM104.468 6.80721L111.108 8.235L111.529 6.2797L104.889 4.85191L104.468 6.80721ZM110.575 6.58848L106.048 11.6191L107.535 12.9569L112.062 7.92623L110.575 6.58848ZM105.797 12.3894L106.481 19.1014L108.471 18.8986L107.787 12.1866L105.797 12.3894ZM107.877 18.0839L101.66 15.3634L100.859 17.1957L107.075 19.9161L107.877 18.0839ZM100.859 15.3634L94.6419 18.0839L95.4437 19.9161L101.66 17.1957L100.859 15.3634ZM96.0377 19.1014L96.722 12.3894L94.7323 12.1866L94.048 18.8986L96.0377 19.1014ZM96.4705 11.6191L91.9441 6.58848L90.4573 7.92623L94.9838 12.9569L96.4705 11.6191ZM91.4109 8.235L98.0506 6.80721L97.6301 4.85191L90.9904 6.2797L91.4109 8.235ZM98.7029 6.33548L102.122 0.505924L100.397 -0.505924L96.9777 5.32364L98.7029 6.33548Z" fill="#FFCB45" mask="url(#path-6-inside-2_59_84)"/>
</svg>
