<svg width="49" height="49" viewBox="0 0 49 49" fill="none" xmlns="http://www.w3.org/2000/svg">
<circle cx="24.5" cy="24.5" r="24" stroke="white"/>
<path fill-rule="evenodd" clip-rule="evenodd" d="M30.9349 17.6927C30.5076 17.0652 29.3648 16.1832 27.5139 16.5637C26.4341 16.7848 25.7889 17.3295 25.3785 18.0484C24.9415 18.8143 24.7296 19.8556 24.7296 21.0674C24.7296 21.395 24.6021 21.7092 24.3751 21.9409C24.1481 22.1725 23.8402 22.3027 23.5191 22.3027C20.655 22.3027 17.9288 21.4343 15.6348 19.0861C15.4616 20.0388 15.3934 21.0083 15.4315 21.9766C15.4956 23.3181 15.8092 24.6633 16.5536 25.8158C17.286 26.9485 18.4905 27.9861 20.5049 28.6383C20.7022 28.7022 20.8803 28.8167 21.0219 28.9708C21.1635 29.125 21.2641 29.3136 21.3138 29.5187C21.3636 29.7238 21.361 29.9385 21.3063 30.1423C21.2516 30.3461 21.1465 30.5322 21.0012 30.6827C20.3559 31.358 19.6247 31.9417 18.827 32.4182C20.1102 32.5541 21.3474 32.564 22.495 32.4578C24.8192 32.2428 26.6701 31.5647 27.8274 30.6049C30.2642 28.5889 31.568 25.5823 31.3259 20.5449C31.2847 19.7173 32.068 18.8242 32.4456 18.146C31.8755 18.2547 31.3041 18.235 30.9349 17.6927ZM14.9279 15.216C15.1471 15.19 15.369 15.2256 15.5698 15.319C15.7706 15.4124 15.9425 15.56 16.067 15.7459C17.8538 18.4128 19.9988 19.5221 22.38 19.7741C22.4962 18.7352 22.771 17.7087 23.2879 16.8045C24.0457 15.4779 25.278 14.502 27.0382 14.1413C29.4713 13.6423 31.3235 14.5415 32.3972 15.6421L34.5665 15.2283C34.7935 15.1849 35.028 15.2087 35.2421 15.2968C35.4563 15.385 35.6414 15.5338 35.7754 15.7257C35.9094 15.9176 35.9868 16.1447 35.9985 16.3801C36.0101 16.6154 35.9556 16.8493 35.8412 17.0541L33.7591 20.787C33.9491 26.174 32.482 29.9341 29.3539 32.5245C27.6955 33.8981 25.3204 34.6775 22.7141 34.9184C20.0872 35.1605 17.1178 34.8678 14.1665 33.9882C13.9143 33.9132 13.6929 33.7565 13.5357 33.5417C13.3785 33.327 13.2939 33.0659 13.2949 32.7979C13.2959 32.5299 13.3822 32.2694 13.541 32.0559C13.6997 31.8423 13.9222 31.6873 14.1749 31.6141C15.6591 31.183 16.7897 30.8112 17.8102 30.1602C16.3587 29.3745 15.2898 28.3468 14.5332 27.1758C13.4825 25.5477 13.0927 23.7319 13.0152 22.0952C12.9378 20.4584 13.169 18.9415 13.4135 17.8483C13.5527 17.2245 13.7149 16.5995 13.9389 16.0016C14.0179 15.7909 14.1519 15.6062 14.3265 15.4677C14.5011 15.3292 14.7083 15.2422 14.9279 15.216Z" fill="white"/>
</svg>
