<svg width="25" height="25" viewBox="0 0 25 25" fill="none" xmlns="http://www.w3.org/2000/svg">
<path d="M11.1556 10.5208V18.1374V14.8845C11.1556 12.4745 13.1093 10.5208 15.5193 10.5208V10.5208C16.9653 10.5208 18.1375 11.693 18.1375 13.139V18.1374M6.71252 10.5208V18.1374" stroke="#F7921C" stroke-width="1.5" stroke-linecap="round" stroke-linejoin="round"/>
<path d="M7.98219 6.7128C7.98219 7.4139 7.41384 7.98225 6.71274 7.98225C6.01165 7.98225 5.4433 7.4139 5.4433 6.7128C5.4433 6.01171 6.01165 5.44336 6.71274 5.44336C7.41384 5.44336 7.98219 6.01171 7.98219 6.7128Z" fill="#F7921C" stroke="#F7921C" stroke-width="1.5"/>
<path d="M1 7.60001C1 4.8502 1 3.47529 1.70027 2.51145C1.92643 2.20017 2.20017 1.92643 2.51145 1.70027C3.47529 1 4.8502 1 7.6 1H17.25C19.9998 1 21.3747 1 22.3385 1.70027C22.6498 1.92643 22.9236 2.20017 23.1497 2.51145C23.85 3.47529 23.85 4.8502 23.85 7.6V17.25C23.85 19.9998 23.85 21.3747 23.1497 22.3385C22.9236 22.6498 22.6498 22.9236 22.3385 23.1497C21.3747 23.85 19.9998 23.85 17.25 23.85H7.60001C4.8502 23.85 3.47529 23.85 2.51145 23.1497C2.20017 22.9236 1.92643 22.6498 1.70027 22.3385C1 21.3747 1 19.9998 1 17.25V7.60001Z" stroke="#F7921C" stroke-width="1.5" stroke-linejoin="round"/>
</svg>
