<svg width="184" height="36" fill="none" xmlns="http://www.w3.org/2000/svg"><path fill-rule="evenodd" clip-rule="evenodd" d="M2.881 6.033C6.388 3.045 11.931 3.585 15 7c3.069-3.415 8.612-3.955 12.119-.967 3.506 2.989 3.862 8.18.793 11.595L16.488 30.344a2 2 0 0 1-2.976 0L2.088 17.628C-.981 14.213-.625 9.022 2.88 6.033Z" fill="#0A0A0A"/><path d="M11 17v.5M19 17v.5" stroke="#fff" stroke-width="3" stroke-linecap="round" stroke-linejoin="round"/><path d="M12 23s.75-1 3-1 3 1 3 1" stroke="#fff" stroke-linecap="round" stroke-linejoin="round"/><path d="M47.65 12.254c-.77.82-1.384 1.231-1.841 1.231-.508 0-.961-.325-1.359-.977a3.884 3.884 0 0 1-.584-2.044c0-.72.17-1.346.508-1.879a5.363 5.363 0 0 1 1.371-1.435 9.469 9.469 0 0 1 1.943-1.079 16.032 16.032 0 0 1 2.285-.749c1.557-.398 2.865-.596 3.922-.596 1.067 0 1.96.046 2.68.14.719.084 1.413.228 2.081.43.669.204 1.3.466 1.892.788a6.461 6.461 0 0 1 1.561 1.143c.948.973 1.422 2.187 1.422 3.643 0 1.507-.474 3.051-1.422 4.634a12.14 12.14 0 0 1-3.554 3.809c-1.55 1.057-3.11 1.586-4.685 1.586-.77 0-1.447-.19-2.031-.57-.28-.195-.423-.42-.432-.674a6.42 6.42 0 0 1 .013-.71c.068-.872.258-1.896.571-3.073.618.254 1.278.38 1.98.38.703 0 1.287-.071 1.753-.215a7.281 7.281 0 0 0 1.396-.635c.474-.27.927-.592 1.358-.964.44-.373.83-.788 1.169-1.245.736-.998 1.104-1.946 1.104-2.843 0-.898-.207-1.604-.622-2.12a4.375 4.375 0 0 0-1.574-1.257c-1.21-.601-2.704-.902-4.482-.902-1.532 0-3.097.31-4.697.927-1.117.44-1.921.999-2.412 1.676-.254.355-.381.745-.381 1.168 0 .956.355 1.76 1.066 2.412ZM42.9 24.162c.432-.457.94-1.248 1.524-2.374a285.43 285.43 0 0 0 1.498-2.945c.415-.83.846-1.68 1.295-2.552.457-.872.922-1.735 1.396-2.59.483-.863.97-1.676 1.46-2.437 1.092-1.676 2.09-2.853 2.996-3.53a.506.506 0 0 1 .33-.127c.127 0 .254.022.381.064.28.093.525.237.737.432-1.058.846-2.15 3.068-3.276 6.665a206.427 206.427 0 0 0-.94 3.021c-.304.999-.6 1.964-.888 2.895-.28.93-.559 1.752-.838 2.462-.6 1.566-1.138 2.35-1.612 2.35-1.498 0-2.67-.306-3.517-.915a9.85 9.85 0 0 1-.546-.419ZM64.775 25c-1.845 0-2.767-1.054-2.767-3.161 0-1.786.986-4.071 2.958-6.856 1.735-2.446 3.614-4.494 5.637-6.144 1.278-1.041 2.221-1.562 2.83-1.562.45 0 .847.208 1.194.622.38.44.571.893.571 1.359 0 .457-.101.872-.304 1.244a5.567 5.567 0 0 1-.8 1.104c-.33.373-.724.741-1.18 1.105-.45.364-.928.707-1.436 1.028-1.049.677-2.077 1.185-3.084 1.524a37.306 37.306 0 0 0-1.08 2.678c1.71-1.54 3.703-2.615 5.98-3.224.728-.195 1.341-.292 1.84-.292.5 0 .8.089.902.266.102.17.119.398.05.686a4.21 4.21 0 0 1-.355.978c-.177.363-.36.74-.545 1.13-.466 1.006-.699 1.726-.699 2.158 0 .888.284 1.333.85 1.333.627 0 1.325-.284 2.096-.851a7.879 7.879 0 0 0 1.802-1.93c.381-.025.572.131.572.47 0 .27-.178.711-.534 1.32-.347.601-.69 1.122-1.028 1.562-.338.44-.72.876-1.142 1.308-.424.423-.876.8-1.359 1.13-1.083.753-2.124 1.13-3.123 1.13-.999 0-1.71-.255-2.133-.762-.414-.517-.622-1.253-.622-2.21 0-1.227.74-2.763 2.222-4.608.457-.567.656-.85.597-.85-.678 0-1.706.423-3.085 1.27-1.465.896-2.497 1.776-3.098 2.64a20.319 20.319 0 0 0-.622 3.897c0 .339-.368.508-1.105.508Zm4.33-11.21c1.091-.5 2.03-1.096 2.818-1.79.787-.71 1.18-1.325 1.18-1.84 0-.255-.05-.487-.152-.7-.093-.22-.22-.33-.38-.33-.153 0-.352.115-.597.344-.246.228-.52.546-.826.952-.643.846-1.324 1.968-2.043 3.364Zm12.593 11.274-.254.012c-1.337 0-2.357-.33-3.06-.99-.66-.618-.99-1.456-.99-2.514 0-1.456.58-2.848 1.74-4.177a9.022 9.022 0 0 1 4.1-2.704c-.05-.38.09-.694.42-.939.236-.178.626-.267 1.167-.267.55 0 1.08.051 1.587.153.508.101 1.02.325 1.536.672 1.117.737 1.676 1.727 1.676 2.971a7.813 7.813 0 0 1-1.003 3.834c1.456-.313 2.73-1.286 3.822-2.92.38-.025.57.131.57.47 0 .136-.042.3-.126.495-1.151 2.734-3.453 4.545-6.906 5.434-1.236.321-2.641.482-4.215.482l-.064-.012Zm-.216-5.561c0 .982.41 1.473 1.232 1.473.694 0 1.392-.42 2.095-1.257.736-.872 1.104-1.756 1.104-2.654 0-.914-.44-1.519-1.32-1.815-1.515.423-2.484 1.371-2.907 2.844a4.85 4.85 0 0 0-.204 1.409Zm14.968-4.735c1.134-.669 2.239-1.003 3.314-1.003 1.709 0 2.784.651 3.224 1.955.136.397.203.893.203 1.485 0 1.287-.474 2.611-1.421 3.974.795-.11 1.565-.423 2.31-.94.745-.524 1.392-1.206 1.942-2.044.381-.025.572.131.572.47 0 .136-.043.3-.127.495-1.608 3.902-5.514 5.853-11.718 5.853h-.025c-1.143 0-2.087-.335-2.831-1.003-.813-.737-1.22-1.765-1.22-3.085 0-1.625 1.482-4.562 4.444-8.81 1.253-1.812 2.323-3.225 3.212-4.241.246-.28.576-.419.99-.419.457 0 .792.17 1.003.508-1.743 2.734-3.034 5.002-3.872 6.805Zm-1.307 3.516c-.11.533-.165.982-.165 1.346 0 .364.11.673.33.927.22.245.503.368.85.368.356 0 .715-.06 1.08-.178a5.58 5.58 0 0 0 1.066-.508c.347-.211.677-.457.99-.736a6.04 6.04 0 0 0 .825-.927c.508-.71.762-1.384.762-2.018 0-.407-.102-.716-.305-.927-.338-.356-.72-.533-1.142-.533-.415 0-.838.088-1.27.266a4.88 4.88 0 0 0-1.219.698c-.82.618-1.422 1.359-1.802 2.222Zm19.22-7.287c-.347.17-.723.3-1.13.394a5.076 5.076 0 0 1-1.041.127c-.296 0-.562-.034-.799-.102a2.23 2.23 0 0 1-.635-.317c-.406-.297-.61-.652-.61-1.067 0-.414.072-.766.216-1.053.153-.288.368-.534.648-.737.601-.44 1.32-.66 2.158-.66.846 0 1.46.174 1.841.52.389.348.584.745.584 1.194 0 .448-.119.8-.356 1.054s-.529.47-.876.647Zm-9.775 12.53c-.178-.38-.267-.846-.267-1.396 0-.559.119-1.147.356-1.765.245-.618.554-1.231.927-1.84.38-.618.804-1.21 1.269-1.778.466-.576.927-1.083 1.384-1.523 1.007-.957 1.748-1.435 2.222-1.435.203 0 .427.089.672.267.254.169.415.296.483.38-1.278 1.372-2.086 2.696-2.425 3.974-.11.39-.165.77-.165 1.143 0 .364.14.694.419.99.279.288.626.432 1.041.432.415 0 .8-.077 1.155-.229.364-.16.72-.368 1.067-.622a7.881 7.881 0 0 0 1.802-1.93c.381-.025.572.131.572.47 0 .28-.178.72-.534 1.32-.347.601-.694 1.122-1.041 1.562-.347.431-.744.859-1.193 1.282-.44.423-.922.8-1.447 1.13-1.177.745-2.387 1.117-3.631 1.117-1.312 0-2.201-.516-2.666-1.549Zm15.818-.558c-1.159 1.354-2.573 2.031-4.24 2.031-1.058 0-1.904-.317-2.539-.952-.626-.626-.939-1.452-.939-2.476 0-1.295.507-2.552 1.523-3.77.982-1.185 2.268-2.15 3.859-2.895 1.651-.77 3.356-1.155 5.117-1.155.668 0 1.146.106 1.434.317.229-.27.432-.427.609-.47.187-.05.331-.076.432-.076.322 0 .664.047 1.028.14-.033.11-.105.3-.215.571-.11.263-.233.576-.369.94a76.46 76.46 0 0 0-.431 1.193c-.55 1.54-.825 2.696-.825 3.466 0 .762.241 1.143.723 1.143.627 0 1.325-.284 2.095-.851a7.885 7.885 0 0 0 1.803-1.93c.381-.025.571.131.571.47 0 .288-.178.728-.533 1.32a15.144 15.144 0 0 1-1.016 1.537c-.33.431-.698.854-1.104 1.269-.407.415-.838.787-1.295 1.117-1.024.728-2.023 1.092-2.996 1.092-1.236 0-2.065-.372-2.489-1.117-.135-.229-.203-.428-.203-.597v-.317Zm-3.631-3.466c0 .982.411 1.473 1.232 1.473.905 0 1.972-.732 3.199-2.197a27.84 27.84 0 0 0 1.701-2.234c.491-.711.864-1.253 1.117-1.625-2.115.017-3.872.5-5.268 1.447-1.32.897-1.981 1.943-1.981 3.136Z" fill="#0A0A0A"/></svg>