<svg width="184" height="36" fill="none" xmlns="http://www.w3.org/2000/svg"><circle cx="15" cy="18" r="15" fill="#fff"/><path d="M8.5 10h11l2 2-2 2h-11v-4ZM8.5 16h7l2 2-2 2h-7v-4ZM8.5 22h4v4h-4z" fill="#0A0A0A"/><path d="M43.363 25V11.182h8.852v2.098h-6.349v3.752h5.742v2.098h-5.742V25h-2.503Zm13.534.21c-.657 0-1.248-.118-1.774-.352a2.895 2.895 0 0 1-1.242-1.052c-.301-.464-.452-1.035-.452-1.714 0-.585.108-1.068.324-1.45.216-.383.51-.689.884-.918.373-.23.794-.403 1.262-.52.472-.121.96-.209 1.464-.263.607-.063 1.1-.12 1.477-.169.378-.054.653-.135.824-.242.175-.113.263-.286.263-.52v-.04c0-.509-.151-.902-.452-1.181-.302-.28-.736-.419-1.303-.419-.598 0-1.072.13-1.423.392-.346.26-.58.569-.702.924l-2.28-.324c.18-.63.476-1.156.89-1.579.414-.427.92-.746 1.518-.958a5.808 5.808 0 0 1 1.984-.324c.5 0 .996.059 1.491.176.495.117.947.31 1.356.58.41.266.738.628.985 1.086.252.46.378 1.033.378 1.72V25h-2.348v-1.424h-.08a2.98 2.98 0 0 1-.628.81c-.266.247-.6.448-1.006.6-.4.149-.87.223-1.41.223Zm.635-1.796c.49 0 .915-.096 1.275-.29.36-.198.636-.458.83-.782.197-.324.297-.677.297-1.06v-1.22c-.077.062-.207.12-.392.174-.18.055-.382.102-.607.142-.225.04-.448.077-.668.108l-.574.081c-.364.05-.69.13-.978.243-.288.113-.515.27-.681.472-.167.198-.25.455-.25.77 0 .45.164.789.492 1.018.329.23.747.344 1.255.344ZM64.445 25V14.636h2.335v1.761h.121a2.749 2.749 0 0 1 1.073-1.39c.5-.337 1.095-.506 1.788-.506.702 0 1.293.171 1.774.513.486.338.828.799 1.026 1.383h.108a2.832 2.832 0 0 1 1.16-1.376c.55-.346 1.2-.52 1.95-.52.954 0 1.732.302 2.335.905.603.602.904 1.482.904 2.638V25h-2.45v-6.578c0-.644-.17-1.114-.512-1.41-.342-.302-.76-.453-1.255-.453-.59 0-1.05.185-1.383.554-.328.364-.493.838-.493 1.423V25h-2.395v-6.68c0-.535-.162-.962-.486-1.282-.32-.319-.737-.479-1.255-.479-.35 0-.67.09-.958.27a1.884 1.884 0 0 0-.688.75c-.17.319-.256.692-.256 1.12V25h-2.443Zm16.672 0V14.636h2.442V25h-2.442Zm1.228-11.835c-.387 0-.72-.128-.999-.384a1.24 1.24 0 0 1-.418-.938c0-.369.14-.681.418-.938.28-.26.612-.391.999-.391.391 0 .724.13.999.391.278.257.418.57.418.938 0 .364-.14.677-.418.938a1.41 1.41 0 0 1-1 .384Zm5.788-1.983V25h-2.442V11.182h2.442Zm3.65 17.704c-.333 0-.64-.027-.924-.08a3.43 3.43 0 0 1-.668-.176l.567-1.903c.355.104.672.153.951.149.279-.005.524-.093.736-.263.215-.167.398-.446.546-.837l.21-.56-3.759-10.58h2.59l2.39 7.827h.107l2.396-7.827h2.597l-4.15 11.619a4.653 4.653 0 0 1-.769 1.41c-.319.396-.71.697-1.173.904-.46.212-1.008.317-1.647.317ZM103.937 25l2.294-13.818h9.716l-.513 3.022h-5.964l-.378 2.375h5.371l-.513 3.023h-5.371l-.89 5.398h-3.752Zm17.596-4.534.972-5.83h3.724L124.502 25h-3.535l.324-1.97h-.108a3.567 3.567 0 0 1-1.431 1.552 4.088 4.088 0 0 1-2.105.553c-.724 0-1.329-.167-1.815-.5a2.678 2.678 0 0 1-1.032-1.376c-.203-.585-.243-1.255-.122-2.01l1.107-6.613h3.724l-.971 5.83c-.077.513-.012.915.195 1.208.212.292.551.438 1.019.438.311 0 .589-.065.837-.195.252-.135.459-.324.621-.567.166-.248.274-.542.323-.884Zm9.206-1.296-.971 5.83h-3.725l1.728-10.364h3.535l-.324 1.97h.108a3.623 3.623 0 0 1 1.437-1.545 4.064 4.064 0 0 1 2.099-.56c.733 0 1.342.167 1.828.5.486.333.83.791 1.033 1.376.202.585.238 1.255.108 2.01L136.488 25h-3.724l.971-5.83c.086-.512.023-.915-.189-1.207-.207-.293-.549-.439-1.025-.439-.302 0-.578.068-.83.203-.248.13-.455.319-.621.566a2.252 2.252 0 0 0-.331.878Zm10.919 5.965c-.738 0-1.386-.194-1.944-.58-.553-.387-.951-.974-1.194-1.761-.238-.788-.259-1.78-.061-2.976.207-1.25.569-2.267 1.087-3.05.521-.782 1.12-1.356 1.794-1.72.68-.364 1.361-.547 2.045-.547.513 0 .947.09 1.302.27.36.176.646.412.857.709.211.292.355.614.432.965h.054l.877-5.263h3.724L148.337 25h-3.697l.283-1.7h-.081a3.77 3.77 0 0 1-.776.944c-.31.275-.668.493-1.073.655-.404.157-.85.236-1.335.236Zm1.848-2.86c.342 0 .653-.1.931-.298.279-.202.515-.486.709-.85.193-.369.33-.805.411-1.309.086-.513.093-.951.021-1.316-.072-.368-.216-.65-.432-.843-.212-.198-.488-.297-.83-.297-.342 0-.65.1-.924.297-.275.194-.506.475-.695.844-.185.364-.32.802-.405 1.315-.086.513-.097.954-.034 1.323.068.364.207.645.418.843.212.193.488.29.83.29Z" fill="#fff"/></svg>