<svg xmlns="http://www.w3.org/2000/svg" width="184" height="36" fill="none"><path fill="#fff" d="M1 20c0 6.627 5.373 12 12 12h16V4H1v16Z"/><path fill="#0A0A0A" fill-rule="evenodd" d="M11.5 10.5v11h11v4h-11a4 4 0 0 1-4-4v-11h4Zm11 0h-4v5a2 2 0 1 0 4 0v-5Z" clip-rule="evenodd"/><path fill="#fff" d="M43.58 10.252h3.179v8.53c0 1.353.04 2.23.118 2.631.136.645.458 1.164.967 1.558.515.386 1.217.58 2.105.58.903 0 1.583-.183 2.041-.548.459-.372.734-.827.827-1.364.093-.537.14-1.429.14-2.675v-8.712h3.18v8.271c0 1.891-.086 3.227-.258 4.007-.172.78-.49 1.44-.956 1.977-.459.537-1.074.967-1.848 1.289-.773.315-1.783.473-3.03.473-1.503 0-2.645-.172-3.426-.516-.773-.351-1.386-.802-1.837-1.354-.45-.558-.748-1.142-.891-1.75-.208-.903-.312-2.235-.312-3.997v-8.4ZM69.194 26h-3.02v-5.822c0-1.232-.063-2.027-.192-2.385a1.665 1.665 0 0 0-.634-.849c-.287-.2-.634-.3-1.042-.3a2.42 2.42 0 0 0-1.407.43 2.193 2.193 0 0 0-.86 1.138c-.15.473-.225 1.346-.225 2.621V26h-3.019V14.592H61.6v1.676c.995-1.29 2.248-1.934 3.76-1.934.665 0 1.274.122 1.826.365.551.236.966.54 1.246.913.286.373.483.795.59 1.268.115.473.172 1.15.172 2.03V26Zm1.348-3.255 3.03-.462c.129.587.39 1.035.784 1.343.394.3.945.451 1.654.451.78 0 1.368-.143 1.762-.43a.96.96 0 0 0 .397-.805.793.793 0 0 0-.215-.57c-.15-.143-.487-.275-1.01-.397-2.434-.537-3.978-1.028-4.63-1.472-.902-.616-1.353-1.471-1.353-2.567 0-.988.39-1.82 1.171-2.492.78-.673 1.991-1.01 3.631-1.01 1.561 0 2.721.254 3.48.763.76.508 1.282 1.26 1.569 2.255l-2.847.527c-.122-.444-.354-.784-.698-1.02-.337-.237-.82-.355-1.45-.355-.795 0-1.365.11-1.708.333-.23.157-.344.362-.344.612 0 .215.1.398.3.548.273.2 1.211.483 2.815.849 1.612.365 2.736.813 3.373 1.343.63.537.945 1.285.945 2.245 0 1.045-.436 1.944-1.31 2.696-.874.752-2.166 1.128-3.878 1.128-1.554 0-2.786-.315-3.695-.945-.903-.63-1.493-1.486-1.773-2.568ZM89.8 22.37l3.008.505c-.387 1.103-.999 1.944-1.837 2.524-.83.573-1.873.86-3.126.86-1.983 0-3.452-.648-4.404-1.944-.752-1.039-1.128-2.35-1.128-3.932 0-1.89.494-3.37 1.482-4.437.989-1.074 2.238-1.611 3.75-1.611 1.697 0 3.036.562 4.017 1.686.981 1.118 1.45 2.833 1.407 5.146h-7.562c.021.895.265 1.593.73 2.095.466.494 1.046.741 1.74.741.473 0 .87-.129 1.193-.387.322-.258.566-.673.73-1.246Zm.172-3.05c-.021-.874-.247-1.537-.677-1.988a2.069 2.069 0 0 0-1.568-.687c-.659 0-1.203.24-1.633.72-.43.48-.64 1.13-.633 1.954h4.511Zm7.064-1.247-2.74-.494c.308-1.103.838-1.92 1.59-2.45.752-.529 1.87-.794 3.352-.794 1.346 0 2.349.161 3.008.483.659.316 1.121.72 1.386 1.214.272.487.408 1.386.408 2.697l-.033 3.523c0 1.003.047 1.744.14 2.224.1.472.283.98.548 1.525h-2.986a10.78 10.78 0 0 1-.29-.892 5.549 5.549 0 0 0-.108-.354 5.434 5.434 0 0 1-1.654 1.128 4.737 4.737 0 0 1-1.88.376c-1.174 0-2.102-.319-2.782-.956-.673-.638-1.01-1.443-1.01-2.417 0-.645.154-1.218.462-1.719a2.98 2.98 0 0 1 1.289-1.16c.559-.272 1.36-.509 2.406-.71 1.411-.264 2.389-.511 2.933-.74v-.301c0-.58-.143-.992-.43-1.235-.286-.251-.827-.376-1.622-.376-.537 0-.956.107-1.257.322-.3.207-.544.576-.73 1.106Zm4.039 2.45c-.387.128-.999.282-1.837.461-.838.18-1.386.355-1.644.527-.394.28-.59.634-.59 1.063 0 .423.157.788.472 1.096.315.308.716.462 1.203.462.545 0 1.064-.18 1.558-.537.365-.272.605-.605.72-1 .078-.257.118-.748.118-1.471v-.602ZM106.365 26V10.252h3.019V26h-3.019Z"/></svg>