<svg xmlns="http://www.w3.org/2000/svg" width="184" height="36" fill="none"><circle cx="15" cy="18" r="15" fill="#fff"/><path fill="#0A0A0A" d="M7 15.154a1 1 0 0 1 .6-.916L15 11l7.4 3.238a1 1 0 0 1 .6.916v6.24c0 1.004-.506 1.942-1.43 2.333C20.22 24.299 17.96 25 15 25c-2.96 0-5.22-.701-6.57-1.273-.924-.392-1.43-1.33-1.43-2.333v-6.24Z"/><path stroke="#fff" stroke-linecap="round" stroke-linejoin="round" d="M11 18s1 2.5 4 2.5 4-2.5 4-2.5"/><path fill="#fff" d="M43.6 24h1.328v-9.024h.064l3.968 7.104h.16l3.968-7.056h.064V24h1.328V12.8h-1.616l-3.776 6.832h-.064L45.248 12.8H43.6V24Zm20.222-11.2H62.11l-4.112 11.04V24h1.456l1.056-2.928h4.896L66.462 24h1.488v-.16L63.822 12.8Zm-2.864 7.024 1.968-5.472h.064l1.968 5.472h-4ZM71.464 24h1.408V12.8h-1.408V24Zm6.05 0h6.8v-1.28h-5.408V12.8h-1.392V24Zm13.677.144c3.36 0 4.672-1.44 4.672-3.44 0-2.192-1.584-3.04-3.664-3.472l-1.52-.32c-1.04-.224-1.264-.608-1.264-1.04 0-.464.448-.976 1.76-.976 1.328 0 1.888.672 1.952 1.408h2.544c-.016-2.144-1.904-3.648-4.464-3.648-2.64 0-4.368 1.328-4.368 3.216 0 2.144 1.52 2.944 3.456 3.36l1.632.352c.992.208 1.36.576 1.36 1.184 0 .672-.56 1.152-2.096 1.152-1.216 0-2.064-.544-2.176-1.76H86.47c.144 2.416 1.728 3.984 4.72 3.984ZM98.82 24h2.432v-7.28h.064l3.344 5.424h.16l3.344-5.376h.064V24h2.432V12.8h-2.72l-3.152 5.136h-.064l-3.152-5.136H98.82V24Zm15.518 0h2.528V12.8h-2.528V24Zm12.942-4.256c1.36-.544 2.208-1.76 2.208-3.376 0-1.904-1.44-3.568-3.824-3.568h-5.12V24h2.512v-3.952h1.568L127.04 24h2.944v-.16l-2.704-4.096Zm-4.224-4.704h2.48c.976 0 1.376.672 1.376 1.344 0 .704-.368 1.424-1.376 1.424h-2.48V15.04Zm14.175 3.136 4.816-5.216v-.16h-2.944l-3.888 4.24V12.8h-2.512V24h2.512v-4.64l4.048 4.64h2.976v-.16l-5.008-5.664Z"/></svg>