<svg xmlns="http://www.w3.org/2000/svg" width="184" height="36" fill="none"><path fill="#fff" d="M1.106 30.789a1 1 0 0 0-.106.447v.264a1 1 0 0 0 1 1h26a1 1 0 0 0 1-1v-.264a.999.999 0 0 0-.106-.447l-1.618-3.236a1 1 0 0 0-.894-.553H3.618a1 1 0 0 0-.894.553l-1.618 3.236Z"/><path fill="#fff" fill-rule="evenodd" d="M4 12.974a1 1 0 0 1 .367-.774L15 3.5l3.382 2.767A.99.99 0 0 0 20 5.5h4v4.89a1 1 0 0 0 .367.774l1.266 1.036a1 1 0 0 1 .367.774V24a1 1 0 0 1-1 1H5a1 1 0 0 1-1-1V12.974ZM15 16a3 3 0 0 0-3 3v5h6v-5a3 3 0 0 0-3-3Z" clip-rule="evenodd"/><path fill="#fff" d="M45.62 25v-5.776h6.479V25h2.28V11.32h-2.28v5.757h-6.48V11.32H43.33V25h2.29Zm15.573.285c3.069 0 5.12-2.213 5.12-5.415 0-3.173-2.023-5.415-5.12-5.415-3.03 0-5.101 2.194-5.101 5.415 0 3.173 2.014 5.415 5.101 5.415Zm0-2.147c-1.767 0-2.679-1.273-2.679-3.268 0-1.938.836-3.268 2.68-3.268 1.795 0 2.697 1.282 2.697 3.268 0 1.928-.883 3.268-2.698 3.268ZM70.317 25v-6.317c0-1.283.76-2.157 1.928-2.157 1.197 0 1.947.846 1.947 2.27V25h2.28v-6.317c0-1.359.837-2.157 1.939-2.157 1.177 0 1.938.836 1.938 2.242V25h2.289v-6.811c0-2.223-1.245-3.706-3.515-3.706-1.33 0-2.489.618-3.126 1.634-.541-.997-1.548-1.634-2.992-1.634-1.235 0-2.299.523-2.974 1.368V14.74h-2.023V25h2.309Zm18.916.285c1.976 0 3.743-1.064 4.532-2.926l-2.261-.684c-.447.95-1.283 1.463-2.404 1.463-1.558 0-2.47-.94-2.65-2.632h7.429c.266-3.695-1.596-6.051-4.779-6.051-3.02 0-5.101 2.166-5.101 5.529 0 3.116 2.118 5.301 5.234 5.301Zm-.038-8.826c1.416 0 2.166.713 2.366 2.319h-5.054c.266-1.52 1.15-2.319 2.688-2.319ZM104.191 25l2.793-9.728L109.777 25h2.261l3.99-13.68h-2.403l-2.717 9.88-2.727-9.88-2.403.019-2.717 9.861-2.727-9.88h-2.403L101.93 25h2.261Zm16.407.285c3.069 0 5.121-2.213 5.121-5.415 0-3.173-2.024-5.415-5.121-5.415-3.03 0-5.101 2.194-5.101 5.415 0 3.173 2.014 5.415 5.101 5.415Zm0-2.147c-1.767 0-2.679-1.273-2.679-3.268 0-1.938.836-3.268 2.679-3.268 1.796 0 2.698 1.282 2.698 3.268 0 1.928-.883 3.268-2.698 3.268ZM129.731 25v-5.215c0-1.188.418-2.148 1.358-2.66.637-.371 1.501-.419 2.119-.247V14.74c-.922-.143-1.967.019-2.727.541-.427.266-.769.656-1.026 1.103V14.74h-2.023V25h2.299Zm7.228 0v-4.94l3.923 4.94h3.031l-4.323-5.13 3.981-5.13h-2.86l-3.752 4.94v-8.36h-2.318L134.622 25h2.337Z"/></svg>