<svg width="184" height="36" fill="none" xmlns="http://www.w3.org/2000/svg"><rect y="3" width="30" height="30" rx="12" fill="#fff"/><path d="M11.5 10h5a4 4 0 0 1 4 4c0 .805-.066 1.555-.272 2.182-.328 1.003-1.469 1.318-2.524 1.318H16.5A1.5 1.5 0 0 1 15 16a.5.5 0 0 0-1 0 1.5 1.5 0 0 1-1.5 1.5.5.5 0 0 0 0 1A1.5 1.5 0 0 1 14 20a.5.5 0 0 0 1 0 1.5 1.5 0 0 1 1.5-1.5h1.204c1.055 0 2.196.315 2.524 1.318.206.627.272 1.377.272 2.182a4 4 0 0 1-4 4h-5a2 2 0 0 1-2-2V12a2 2 0 0 1 2-2Z" fill="#0A0A0A"/><path d="M44.21 25V11.4h3.842c1.383 0 2.465.329 3.247.986.793.646 1.19 1.541 1.19 2.686 0 .68-.181 1.27-.544 1.768-.363.487-.867.827-1.513 1.02v.255c.725.215 1.286.6 1.683 1.156.397.555.595 1.23.595 2.023 0 1.156-.414 2.063-1.241 2.72-.827.657-1.966.986-3.417.986H44.21Zm1.7-1.564h2.142c.963 0 1.694-.198 2.193-.595.51-.408.765-.969.765-1.683 0-.737-.255-1.303-.765-1.7-.499-.397-1.23-.595-2.193-.595H45.91v4.573Zm0-6.052h2.142c.907 0 1.598-.187 2.074-.561.487-.385.731-.935.731-1.649 0-.703-.238-1.247-.714-1.632-.476-.385-1.173-.578-2.091-.578H45.91v4.42Zm9.302-2.55h3.842v.782h.476c.216-.329.499-.584.85-.765a2.739 2.739 0 0 1 1.241-.272c.828 0 1.474.278 1.938.833.476.555.714 1.326.714 2.312v1.496h-1.7v-1.241c0-1.235-.504-1.853-1.513-1.853-.646 0-1.127.278-1.445.833-.317.544-.476 1.36-.476 2.448v4.063h3.281V25h-6.868v-1.53h1.955v-7.106h-2.295v-1.53Zm12.482 0h4.726v8.636h3.094V25h-7.82v-1.53h3.094v-7.106h-3.094v-1.53Zm3.774-1.581c-.397 0-.709-.113-.935-.34-.227-.227-.34-.544-.34-.952 0-.397.113-.703.34-.918.226-.227.538-.34.935-.34.396 0 .708.113.935.34.226.215.34.527.34.935 0 .397-.114.708-.34.935-.227.227-.539.34-.935.34Zm15.269 11.458c0 .816-.176 1.519-.527 2.108a3.38 3.38 0 0 1-1.479 1.36c-.646.317-1.428.476-2.346.476-.827 0-1.558-.13-2.193-.391-.635-.25-1.133-.618-1.496-1.105-.363-.476-.567-1.043-.612-1.7h1.564c.159.544.476.963.952 1.258.487.306 1.082.459 1.785.459.861 0 1.53-.227 2.006-.68.476-.442.714-1.065.714-1.87v-1.241h-.476c-.227.351-.567.629-1.02.833-.453.204-.94.306-1.462.306-.827 0-1.547-.198-2.159-.595-.6-.408-1.065-.98-1.394-1.717-.329-.748-.493-1.626-.493-2.635 0-1.031.164-1.915.493-2.652.329-.748.793-1.326 1.394-1.734.612-.408 1.332-.612 2.159-.612.533 0 1.02.108 1.462.323.453.215.793.504 1.02.867h.476v-.935h1.632v9.877Zm-7.004-5.134c0 1.1.238 1.955.714 2.567.487.6 1.162.901 2.023.901.861 0 1.53-.3 2.006-.901.487-.612.731-1.468.731-2.567 0-1.1-.244-1.95-.731-2.55-.476-.612-1.145-.918-2.006-.918-.861 0-1.536.306-2.023.918-.476.6-.714 1.45-.714 2.55ZM90.293 25V10.584h1.632v5.066h.476c.26-.34.6-.6 1.02-.782.42-.193.879-.289 1.377-.289.726 0 1.349.159 1.87.476a3.16 3.16 0 0 1 1.207 1.343c.295.567.442 1.241.442 2.023V25h-1.632v-6.137c0-.884-.204-1.558-.612-2.023-.408-.465-.997-.697-1.768-.697-.77 0-1.36.232-1.768.697-.408.465-.612 1.139-.612 2.023V25h-1.632Zm14.879-12.75v2.584h4.641v1.53h-4.641v5.355c0 .657.136 1.156.408 1.496.272.34.668.51 1.19.51.544 0 .969-.181 1.275-.544.306-.374.515-.935.629-1.683h1.462c-.057 1.224-.38 2.159-.969 2.805-.59.635-1.411.952-2.465.952-1.009 0-1.791-.3-2.346-.901-.544-.612-.816-1.473-.816-2.584v-5.406h-2.312v-1.53h2.312V12.25h1.632ZM112.689 25V11.4h5.338c.975 0 1.819.181 2.533.544.714.351 1.269.85 1.666 1.496s.595 1.417.595 2.312c0 .85-.198 1.592-.595 2.227-.397.623-.952 1.105-1.666 1.445-.714.34-1.558.51-2.533.51h-2.142V25h-3.196Zm3.196-7.939h2.142c.51 0 .901-.113 1.173-.34.283-.227.425-.555.425-.986 0-.42-.142-.742-.425-.969-.272-.238-.663-.357-1.173-.357h-2.142v2.652Zm14.742 1.258v2.176l-2.312.357a1.349 1.349 0 0 0-.748.34.845.845 0 0 0-.289.663c0 .295.091.527.272.697.193.159.476.238.85.238.397 0 .748-.08 1.054-.238a1.98 1.98 0 0 0 .731-.629c.182-.272.272-.572.272-.901V18.37c0-.555-.136-.969-.408-1.241-.272-.272-.697-.408-1.275-.408-.385 0-.725.062-1.02.187a1.749 1.749 0 0 0-.697.544c-.181.238-.3.527-.357.867h-2.941c.08-.873.335-1.62.765-2.244a4.091 4.091 0 0 1 1.734-1.445c.726-.34 1.564-.51 2.516-.51 1.519 0 2.675.346 3.468 1.037.794.68 1.19 1.672 1.19 2.975V25h-2.975v-1.071h-.68c-.181.43-.459.76-.833.986-.362.227-.844.34-1.445.34-.646 0-1.218-.13-1.717-.391a2.974 2.974 0 0 1-1.156-1.088c-.272-.465-.408-.997-.408-1.598 0-.94.289-1.7.867-2.278.59-.578 1.428-.952 2.516-1.122l3.026-.459Zm9.898-6.579v2.72h4.573v2.686h-4.573v4.114c0 .465.073.816.221 1.054.158.227.396.34.714.34.328 0 .589-.147.782-.442.204-.295.374-.782.51-1.462h2.703c-.068 1.485-.454 2.624-1.156 3.417-.692.782-1.661 1.173-2.907 1.173-1.27 0-2.244-.351-2.924-1.054-.669-.703-1.003-1.711-1.003-3.026v-4.114h-1.853V14.46h1.853v-2.72h3.06ZM147.43 25V10.584h3.06v4.896h.68a2.35 2.35 0 0 1 .935-1.003c.408-.238.89-.357 1.445-.357.68 0 1.258.164 1.734.493.476.329.839.81 1.088 1.445.249.635.374 1.405.374 2.312V25h-3.06v-5.899c0-.714-.136-1.247-.408-1.598-.261-.363-.657-.544-1.19-.544-.533 0-.935.181-1.207.544-.261.351-.391.884-.391 1.598V25h-3.06Z" fill="#fff"/></svg>