<svg width="184" height="36" fill="none" xmlns="http://www.w3.org/2000/svg"><rect y="3" width="30" height="30" rx="8" fill="#fff"/><path fill-rule="evenodd" clip-rule="evenodd" d="M16.898 24.524a7 7 0 0 0 2.814-1.812 7 7 0 0 0 1.813-2.814L24.5 8.5l-11.398 2.976a7 7 0 0 0-2.814 1.812 7 7 0 0 0-1.813 2.814L5.5 27.5l11.398-2.976ZM18 15.5a1 1 0 1 0-2 0v2.15l-1.329-1.662c-.885-1.107-2.671-.48-2.671.937V20.5a1 1 0 1 0 2 0v-2.15l1.329 1.662c.886 1.107 2.671.48 2.671-.937V15.5Z" fill="#0A0A0A"/><path d="M43.207 24V12.661h2.346l5.831 7.854-.816 1.7v-9.554h2.533V24h-2.074l-5.933-7.752.646-1.241V24h-2.533Zm15.753.255c-1.45 0-2.545-.385-3.281-1.156-.726-.782-1.088-1.927-1.088-3.434 0-1.62.368-2.782 1.105-3.485.748-.714 1.836-1.071 3.264-1.071.963 0 1.768.164 2.414.493.657.317 1.15.81 1.479 1.479.34.669.51 1.53.51 2.584 0 1.507-.38 2.652-1.14 3.434-.759.77-1.847 1.156-3.263 1.156Zm0-2.023c.42 0 .765-.096 1.037-.289.283-.204.493-.493.629-.867.147-.385.22-.856.22-1.411 0-.635-.073-1.133-.22-1.496-.136-.374-.346-.64-.63-.799-.283-.17-.628-.255-1.036-.255-.43 0-.782.085-1.054.255-.272.17-.476.442-.612.816-.125.363-.187.856-.187 1.479 0 .861.147 1.507.442 1.938.306.42.776.629 1.41.629ZM64.77 24v-7.701c.159-.136.442-.289.85-.459.408-.181.873-.34 1.394-.476a5.972 5.972 0 0 1 1.598-.221c.533 0 .952.04 1.258.119.306.08.538.181.697.306v1.853a4.936 4.936 0 0 0-.73-.102 11.96 11.96 0 0 0-.919-.034 11.968 11.968 0 0 0-.9 0 5.457 5.457 0 0 0-.715.068V24h-2.533Zm10.45.34c-.997 0-1.74-.232-2.226-.697-.488-.476-.731-1.145-.731-2.006v-4.301h-1.258v-1.938h1.258v-2.363h2.652v2.363h1.887v1.938h-1.887v3.978c0 .295.062.516.187.663.124.136.334.204.629.204.17 0 .357-.034.56-.102.205-.068.375-.153.51-.255V24c-.237.125-.498.21-.781.255a3.909 3.909 0 0 1-.8.085Zm3.164-.34V11.998h2.55v5.1l-1.071-.578c.453-.397.986-.72 1.598-.969a4.893 4.893 0 0 1 1.904-.391c.623 0 1.173.102 1.649.306a2.26 2.26 0 0 1 1.105 1.003c.272.453.408 1.082.408 1.887V24h-2.533v-5.117c0-.567-.142-.975-.425-1.224-.272-.26-.674-.391-1.207-.391-.272 0-.544.04-.816.119-.26.068-.465.159-.612.272L80.901 24h-2.516Zm13.51 0 4.284-11.339h3.009L103.2 24h-2.822l-3.621-10.693 1.343-.119L94.496 24h-2.601Zm2.414-2.448.56-2.023h5.152l.255 2.023h-5.967Zm13.832 2.703a7.352 7.352 0 0 1-1.853-.221 3.711 3.711 0 0 1-1.445-.731c-.408-.351-.731-.827-.969-1.428-.227-.6-.34-1.349-.34-2.244 0-1.394.34-2.493 1.02-3.298.691-.805 1.723-1.207 3.094-1.207.181 0 .419.017.714.051.295.023.601.09.918.204.317.113.601.306.85.578l-.51.782v-4.879h2.516v9.894c0 .42-.113.788-.34 1.105a2.682 2.682 0 0 1-.918.765 4.709 4.709 0 0 1-1.275.459 6.29 6.29 0 0 1-1.462.17Zm.102-2.125c.408 0 .737-.051.986-.153.261-.113.391-.278.391-.493v-3.961a2.598 2.598 0 0 0-.663-.255 2.305 2.305 0 0 0-.663-.102c-.476 0-.878.08-1.207.238-.329.159-.578.425-.748.799-.159.374-.238.878-.238 1.513 0 .499.068.93.204 1.292.136.351.357.629.663.833.317.193.742.289 1.275.289ZM116.92 24l-3.587-8.602h2.754l2.601 6.63-.612.017 2.312-6.647h2.669L119.47 24h-2.55Zm10.707.255c-.861 0-1.626-.176-2.295-.527a3.94 3.94 0 0 1-1.547-1.53c-.363-.669-.544-1.462-.544-2.38 0-1.496.368-2.652 1.105-3.468.748-.827 1.813-1.241 3.196-1.241.952 0 1.717.204 2.295.612.589.408 1.02 1.003 1.292 1.785s.402 1.734.391 2.856h-6.545l-.272-1.615h4.726l-.374.799c-.011-.918-.142-1.564-.391-1.938-.249-.374-.657-.561-1.224-.561-.317 0-.606.08-.867.238-.249.159-.448.425-.595.799-.136.363-.204.867-.204 1.513 0 .816.193 1.445.578 1.887.397.442 1.026.663 1.887.663a4.3 4.3 0 0 0 .935-.102c.317-.08.612-.17.884-.272.272-.102.504-.193.697-.272v2.176c-.408.17-.867.306-1.377.408-.499.113-1.082.17-1.751.17Zm5.313-8.126a5.44 5.44 0 0 1 .85-.34 9.356 9.356 0 0 1 1.156-.323c.419-.09.838-.164 1.258-.221.43-.057.827-.085 1.19-.085.77 0 1.428.102 1.972.306.544.193.957.51 1.241.952.294.442.442 1.043.442 1.802V24h-2.533v-5.27c0-.215-.034-.414-.102-.595a1.144 1.144 0 0 0-.782-.765 2.274 2.274 0 0 0-.782-.119c-.261 0-.522.034-.782.102a2.644 2.644 0 0 0-.595.187V24h-2.533v-7.871Zm13.538 8.211c-.997 0-1.74-.232-2.227-.697-.487-.476-.731-1.145-.731-2.006v-4.301h-1.258v-1.938h1.258v-2.363h2.652v2.363h1.887v1.938h-1.887v3.978c0 .295.062.516.187.663.125.136.334.204.629.204.17 0 .357-.034.561-.102.204-.068.374-.153.51-.255V24c-.238.125-.499.21-.782.255a3.907 3.907 0 0 1-.799.085Zm7.21-.085c-.794 0-1.496-.125-2.108-.374-.612-.25-1.088-.629-1.428-1.139-.34-.521-.51-1.196-.51-2.023v-5.321h2.533v5.117c0 .544.119.952.357 1.224.249.26.64.391 1.173.391.544 0 .935-.13 1.173-.391.238-.272.357-.68.357-1.224v-5.117h2.38v5.321c0 1.224-.352 2.12-1.054 2.686-.703.567-1.661.85-2.873.85Zm5.824-.255v-7.701c.158-.136.442-.289.85-.459.408-.181.872-.34 1.394-.476a5.967 5.967 0 0 1 1.598-.221c.532 0 .952.04 1.258.119.306.08.538.181.697.306v1.853a4.955 4.955 0 0 0-.731-.102 11.971 11.971 0 0 0-.918-.034 11.968 11.968 0 0 0-.901 0 5.433 5.433 0 0 0-.714.068V24h-2.533Zm10.525.255c-.861 0-1.626-.176-2.295-.527a3.94 3.94 0 0 1-1.547-1.53c-.362-.669-.544-1.462-.544-2.38 0-1.496.369-2.652 1.105-3.468.748-.827 1.814-1.241 3.196-1.241.952 0 1.717.204 2.295.612.59.408 1.02 1.003 1.292 1.785s.403 1.734.391 2.856h-6.545l-.272-1.615h4.726l-.374.799c-.011-.918-.141-1.564-.391-1.938-.249-.374-.657-.561-1.224-.561-.317 0-.606.08-.867.238-.249.159-.447.425-.595.799-.136.363-.204.867-.204 1.513 0 .816.193 1.445.578 1.887.397.442 1.026.663 1.887.663.318 0 .629-.034.935-.102.318-.08.612-.17.884-.272.272-.102.505-.193.697-.272v2.176c-.408.17-.867.306-1.377.408-.498.113-1.082.17-1.751.17Zm7.863 0c-.612 0-1.139-.068-1.581-.204a11.859 11.859 0 0 1-1.224-.425v-2.227c.238.159.504.323.799.493.295.159.618.289.969.391.363.102.742.153 1.139.153.408 0 .691-.068.85-.204a.676.676 0 0 0 .255-.527.526.526 0 0 0-.255-.459 2.12 2.12 0 0 0-.663-.306c-.272-.08-.561-.153-.867-.221a4.519 4.519 0 0 1-.816-.255 2.673 2.673 0 0 1-.731-.493 2.41 2.41 0 0 1-.527-.748c-.125-.306-.187-.674-.187-1.105 0-.555.108-1.014.323-1.377.215-.374.499-.674.85-.901a3.472 3.472 0 0 1 1.139-.476 4.367 4.367 0 0 1 1.19-.136c.703.023 1.258.102 1.666.238.419.125.799.289 1.139.493v1.989a18.643 18.643 0 0 0-1.156-.595c-.374-.193-.805-.289-1.292-.289-.442 0-.759.068-.952.204a.634.634 0 0 0-.289.544c0 .215.062.385.187.51.136.125.312.227.527.306.215.068.453.136.714.204.283.068.572.153.867.255.306.09.589.227.85.408.272.17.487.414.646.731.17.306.255.714.255 1.224-.011.691-.198 1.247-.561 1.666-.363.408-.833.703-1.411.884a6.425 6.425 0 0 1-1.853.255Z" fill="#fff"/></svg>