<svg width="184" height="36" fill="none" xmlns="http://www.w3.org/2000/svg"><circle cx="15" cy="18" r="15" fill="#fff"/><path d="M15 15.364C15 11.849 12.09 9 8.5 9v7.636C8.5 20.151 11.41 23 15 23s6.5-2.85 6.5-6.364V9c-3.59 0-6.5 2.85-6.5 6.364ZM19 25a4 4 0 0 0-4 4 4 4 0 0 0 4-4ZM11 25a4 4 0 0 1 4 4 4 4 0 0 1-4-4Z" fill="#0A0A0A"/><path d="M48.973 25.285c3.971 0 6.365-2.784 6.365-6.66 0-.076-.019-.598-.038-.797h-4.845v1.795h2.413c-.352 2.356-1.691 3.534-3.753 3.505-2.755-.038-4.132-1.976-4.123-4.968.01-2.992 1.369-4.997 4.123-4.959 1.815.01 3.002 1.054 3.525 2.67l2.337-.371c-.694-2.812-2.641-4.465-6.004-4.465-3.657 0-6.403 2.641-6.403 7.125 0 4.56 2.84 7.125 6.403 7.125ZM59.165 25v-5.215c0-1.188.418-2.148 1.358-2.66.637-.371 1.502-.419 2.119-.247V14.74c-.922-.143-1.967.019-2.727.541-.427.266-.769.656-1.026 1.103V14.74h-2.023V25h2.299Zm9.389.285c1.976 0 3.743-1.064 4.531-2.926l-2.26-.684c-.447.95-1.283 1.463-2.404 1.463-1.558 0-2.47-.94-2.65-2.632h7.428c.266-3.695-1.596-6.051-4.778-6.051-3.021 0-5.102 2.166-5.102 5.529 0 3.116 2.119 5.301 5.235 5.301Zm-.038-8.826c1.415 0 2.166.713 2.365 2.319h-5.054c.266-1.52 1.15-2.319 2.689-2.319Zm11.087 8.826c1.977 0 3.744-1.064 4.532-2.926l-2.261-.684c-.447.95-1.282 1.463-2.403 1.463-1.559 0-2.47-.94-2.651-2.632h7.429c.266-3.695-1.596-6.051-4.778-6.051-3.022 0-5.102 2.166-5.102 5.529 0 3.116 2.118 5.301 5.234 5.301Zm-.037-8.826c1.415 0 2.165.713 2.365 2.319h-5.054c.266-1.52 1.15-2.319 2.689-2.319ZM88.008 25v-5.273c0-2.489 1.235-3.125 2.404-3.125 2.185 0 2.394 2.195 2.394 3.458V25h2.318v-5.729c0-1.216-.257-4.826-4.038-4.826-1.482 0-2.603.551-3.353 1.435v-1.14H85.69V25h2.318Zm21.16 0v-2.147h-6.042V11.32h-2.289V25h8.331Zm3.709-11.818v-2.1h-2.289v2.1h2.289Zm0 11.818V14.74h-2.289V25h2.289Zm5.648 0v-8.465h2.48V14.74h-2.48v-.655c0-.704.418-1.188 1.292-1.188h1.188v-1.862h-1.283c-.75 0-1.947-.066-2.812.902-.693.76-.674 1.863-.674 2.642v.161h-1.653v1.795h1.653V25h2.289Zm7.912.285c1.976 0 3.743-1.064 4.531-2.926l-2.261-.684c-.446.95-1.282 1.463-2.403 1.463-1.558 0-2.47-.94-2.651-2.632h7.429c.266-3.695-1.596-6.051-4.778-6.051-3.021 0-5.102 2.166-5.102 5.529 0 3.116 2.119 5.301 5.235 5.301Zm-.038-8.826c1.415 0 2.166.713 2.365 2.319h-5.054c.266-1.52 1.15-2.319 2.689-2.319Z" fill="#fff"/></svg>